<?xml version="1.0" standalone="no"?>
<!DOCTYPE svg PUBLIC "-//W3C//DTD SVG 20010904//EN"
 "http://www.w3.org/TR/2001/REC-SVG-20010904/DTD/svg10.dtd">
<svg version="1.0" xmlns="http://www.w3.org/2000/svg"
 width="721.000000pt" height="674.000000pt" viewBox="0 0 721.000000 674.000000"
 preserveAspectRatio="xMidYMid meet">
<metadata>
Created by potrace 1.15, written by Peter Selinger 2001-2017
</metadata>
<g transform="translate(0.000000,674.000000) scale(0.100000,-0.100000)"
fill="#000000" stroke="none">
<path d="M1719 6689 c-114 -69 -243 -160 -369 -260 -131 -103 -451 -422 -551
-549 -447 -565 -699 -1177 -781 -1895 -19 -167 -16 -609 6 -780 50 -399 151
-757 312 -1103 l47 -102 954 0 c1038 0 986 3 1031 -55 32 -41 36 -78 14 -129
-39 -87 31 -80 -969 -86 l-881 -5 81 -122 c45 -67 119 -170 165 -228 l83 -105
564 0 564 0 35 -30 c67 -59 69 -135 5 -196 l-30 -29 -440 -3 c-241 -1 -439 -6
-438 -10 1 -11 165 -154 279 -243 522 -407 1131 -655 1800 -735 202 -25 612
-25 810 0 757 92 1420 388 1986 887 52 46 94 87 94 91 0 4 -191 8 -425 8 -462
0 -460 0 -504 56 -15 19 -21 41 -21 75 0 42 5 55 34 87 l34 37 571 3 571 2 74
93 c40 50 115 153 165 227 l92 135 -885 5 c-874 5 -885 5 -912 26 -15 11 -36
32 -47 46 -38 51 -15 141 46 178 31 19 57 20 988 20 l957 0 37 77 c131 274
231 585 289 903 43 236 51 340 51 640 0 306 -12 442 -61 690 -195 994 -797
1856 -1667 2389 -79 48 -64 52 -232 -57 -813 -526 -1385 -1368 -1574 -2317
-28 -141 -59 -370 -62 -460 -1 -22 -6 5 -10 60 -54 630 -279 1248 -643 1765
-283 401 -654 749 -1079 1009 -37 22 -69 41 -71 41 -1 0 -41 -23 -87 -51z
m211 -1510 c253 -173 473 -426 611 -702 81 -160 86 -152 -57 -90 -236 101
-533 189 -789 233 -139 23 -376 50 -452 50 -29 0 -53 3 -53 7 0 17 124 169
214 262 113 116 215 202 325 272 85 55 70 57 201 -32z m3607 -5 c175 -126 327
-276 451 -445 l40 -56 -114 -7 c-373 -21 -767 -114 -1167 -275 l-148 -60 66
126 c183 345 385 574 664 754 86 56 75 58 208 -37z m-1702 -3697 c44 -15 109
-43 144 -64 75 -44 185 -144 237 -215 34 -46 35 -50 23 -81 -18 -45 -182 -205
-251 -246 -105 -61 -219 -94 -346 -99 -129 -5 -204 7 -310 49 -134 53 -260
152 -338 265 l-37 54 37 54 c98 142 252 248 431 297 105 29 300 22 410 -14z"/>
</g>
</svg>
